<?xml version="1.0" standalone="no"?>
<!DOCTYPE svg PUBLIC "-//W3C//DTD SVG 20010904//EN"
 "http://www.w3.org/TR/2001/REC-SVG-20010904/DTD/svg10.dtd">
<svg version="1.0" xmlns="http://www.w3.org/2000/svg"
 width="700.000000pt" height="700.000000pt" viewBox="0 0 700.000000 700.000000"
 preserveAspectRatio="xMidYMid meet">
<metadata>
Created by potrace 1.11, written by Peter Selinger 2001-2013
</metadata>
<g transform="translate(0.000000,700.000000) scale(0.100000,-0.100000)"
fill="#000000" stroke="none">
<path d="M2077 5674 c-146 -35 -269 -133 -332 -265 -19 -40 -35 -79 -35 -86 0
-10 -22 -13 -82 -13 -147 0 -203 -32 -203 -117 0 -38 5 -49 33 -74 31 -28 36
-29 132 -29 l100 0 0 -140 0 -140 -99 0 c-92 0 -102 -2 -130 -26 -38 -32 -49
-80 -27 -126 24 -51 49 -61 159 -66 l97 -4 0 -158 0 -158 -100 -4 c-97 -4
-101 -5 -133 -36 -27 -27 -32 -40 -32 -78 0 -39 5 -50 33 -75 31 -28 36 -29
132 -29 l100 0 0 -140 0 -140 -100 0 c-96 0 -101 -1 -132 -29 -28 -25 -33 -36
-33 -74 0 -83 56 -117 193 -117 l72 0 0 -135 0 -135 -89 0 c-107 0 -135 -9
-161 -52 -24 -40 -25 -60 -3 -105 22 -48 63 -63 168 -63 l85 0 0 -135 0 -135
-90 0 c-62 0 -100 -5 -120 -15 -32 -17 -60 -61 -60 -95 0 -34 28 -78 60 -95
20 -10 58 -15 120 -15 l90 0 0 -165 0 -165 -98 0 c-107 0 -131 -9 -157 -60
-19 -37 -19 -54 1 -95 23 -48 66 -65 168 -65 l86 0 0 -135 0 -135 -90 0 c-62
0 -100 -5 -120 -15 -32 -17 -60 -61 -60 -95 0 -34 28 -78 60 -95 20 -11 61
-15 137 -16 l108 0 28 -59 c15 -32 48 -81 73 -109 l46 -51 -286 0 -286 0 -15
-24 c-18 -27 -7 -69 20 -80 9 -3 940 -6 2069 -6 2256 0 2096 -4 2096 59 0 45
-15 51 -128 51 l-104 0 37 41 c55 61 93 127 115 198 19 60 20 96 20 788 l0
725 59 64 c85 90 105 147 106 295 0 113 -1 116 -38 191 -24 50 -53 91 -82 116
l-45 40 0 755 c0 725 -1 757 -20 819 -52 168 -185 291 -362 333 -91 21 -2861
21 -2951 -1z m2820 -329 c63 -19 133 -79 164 -142 l24 -48 3 -662 3 -663 -166
0 -165 0 0 699 c0 635 -4 758 -25 814 -6 15 0 17 52 17 33 0 82 -7 110 -15z
m-1193 -645 c77 -12 137 -42 190 -96 70 -70 91 -122 91 -229 0 -107 -20 -156
-92 -229 -26 -25 -67 -56 -92 -68 -45 -23 -52 -23 -509 -26 l-463 -3 -60 27
c-115 52 -199 178 -199 299 0 154 130 302 285 325 75 11 781 11 849 0z m673
-1175 c28 -19 53 -71 53 -112 0 -15 -9 -43 -20 -61 -76 -124 -250 -76 -250 71
0 40 5 53 33 83 50 54 119 61 184 19z m711 -1177 c-3 -652 -3 -664 -24 -709
-49 -105 -126 -152 -261 -157 l-93 -4 23 59 c22 58 22 63 25 766 l3 707 165 0
165 0 -3 -662z"/>
<path d="M5596 1288 c-21 -30 -20 -44 4 -68 19 -19 33 -20 238 -20 240 0 262
5 262 59 0 50 -7 51 -256 51 -229 0 -233 0 -248 -22z"/>
</g>
</svg>
